<svg width="144" height="40" viewBox="0 0 144 40" fill="none" xmlns="http://www.w3.org/2000/svg">
<g clip-path="url(#clip0_1_730)">
<mask id="mask0_1_730" style="mask-type:luminance" maskUnits="userSpaceOnUse" x="0" y="0" width="144" height="40">
<path d="M143.075 0H0.218262V39.936H143.075V0Z" fill="white"/>
</mask>
<g mask="url(#mask0_1_730)">
<path d="M95.2891 39.7996C93.1894 39.7996 91.478 38.0881 91.478 35.9887C91.478 33.889 93.1894 32.1776 95.2891 32.1776C97.3885 32.1776 99.1 33.889 99.1 35.9887C99.1 38.111 97.3885 39.7996 95.2891 39.7996ZM95.2891 32.9761C93.6231 32.9761 92.254 34.3456 92.254 36.0113C92.254 37.6773 93.6231 39.0464 95.2891 39.0464C96.9548 39.0464 98.3243 37.6773 98.3243 36.0113C98.3014 34.3227 96.9548 32.9761 95.2891 32.9761ZM16.1014 39.6399V33.1133H18.8399V32.3373H12.587V33.1133H15.3255V39.6399H16.1014ZM36.8911 39.7996C38.6254 39.7996 39.698 38.8641 40.1088 37.4264L39.3328 37.2664C38.9906 38.4533 38.0777 39.0238 36.8911 39.0238C35.3391 39.0238 34.1068 37.9513 34.1068 35.9887C34.1068 34.1173 35.248 32.9536 36.8683 32.9536C38.0777 32.9536 38.8308 33.5013 39.196 34.5964L39.9491 34.3913C39.4468 33.0447 38.6711 32.1776 36.8911 32.1776C34.7914 32.1776 33.3311 33.661 33.3311 35.9658C33.3537 38.225 34.8143 39.7996 36.8911 39.7996ZM46.1334 39.6399V36.1256H50.5606V39.6399H51.3366V32.3373H50.5606V35.3724H46.1334V32.3601H45.3574V39.6627H46.1334V39.6399ZM87.3246 39.6399V38.8641H83.1257V32.3373H82.3497V39.6399H87.3246ZM136.389 39.7996C137.987 39.7996 139.059 38.9553 139.059 37.7458C139.059 36.4907 138.169 35.9887 136.663 35.5321C135.202 35.0758 134.677 34.8247 134.677 34.0261C134.677 33.4098 135.248 32.9536 136.206 32.9536C137.096 32.9536 137.735 33.3187 138.146 34.1858L138.854 33.7978C138.466 32.8621 137.644 32.1547 136.206 32.1547C134.769 32.1547 133.787 32.9761 133.787 34.0944C133.787 35.3724 134.723 35.7833 136.275 36.2396C137.758 36.6961 138.169 37.0613 138.169 37.7687C138.169 38.5444 137.461 38.9781 136.412 38.9781C135.408 38.9781 134.655 38.499 134.289 37.5176L133.536 37.837C133.947 39.0464 134.951 39.7996 136.389 39.7996ZM28.4702 33.1133V32.3373H23.792V39.6399H28.4702V38.8641H24.5679V36.4221H28.242V35.6464H24.5679V33.0904H28.4702V33.1133ZM57.9545 39.6399V34.0716L63.5454 39.8224V32.3601H62.7697V37.9513L57.2014 32.1776V39.6399H57.9545ZM72.8334 39.7996C70.734 39.7996 69.0226 38.0881 69.0226 35.9887C69.0226 33.889 70.734 32.1776 72.8334 32.1776C74.9331 32.1776 76.6446 33.889 76.6446 35.9887C76.6446 38.111 74.9331 39.7996 72.8334 39.7996ZM72.8334 32.9761C71.1677 32.9761 69.7983 34.3456 69.7983 36.0113C69.7983 37.6773 71.1677 39.0464 72.8334 39.0464C74.4994 39.0464 75.8686 37.6773 75.8686 36.0113C75.8686 34.3227 74.4994 32.9761 72.8334 32.9761ZM111.286 36.3081V35.9201H108.32V36.6961H110.465C110.305 38.1338 109.301 39.0238 107.726 39.0238C106.037 39.0238 104.645 37.6544 104.645 35.9887C104.645 34.3227 106.037 32.9536 107.726 32.9536C108.753 32.9536 109.712 33.4556 110.282 34.2998L110.944 33.8661C110.214 32.8164 109.027 32.1776 107.726 32.1776C105.581 32.1776 103.847 33.889 103.847 35.9887C103.847 38.0881 105.581 39.7996 107.726 39.7996C109.871 39.7996 111.286 38.4076 111.286 36.3081ZM117.197 32.3373V39.6399H117.973V32.3373H117.197ZM139.059 0.844824H123.541V3.49202H139.059V0.844824ZM139.059 22.3875H123.541V25.0347H139.059V22.3875ZM135.111 11.6162H123.564V14.2634H135.111V11.6162ZM110.191 0.844824V19.7175L89.7666 -0.0908203V25.0575H92.4137V6.16202L112.861 25.9932V0.844824H110.191ZM42.756 25.0347L34.9057 15.2675H37.3245C41.7517 15.2675 44.3763 12.1182 44.3763 8.10179C44.3763 4.08536 41.2954 0.844824 37.5071 0.844824H25.9371V3.49202H37.5071C39.9717 3.49202 41.7291 5.68279 41.7291 8.10179C41.7291 10.5436 40.1543 12.5974 37.7583 12.5974H29.406L39.3328 25.0347H42.756ZM0.218262 0.844824V3.49202H12.587V25.0347H15.2342V0.844824H0.218262ZM140.679 32.5198V33.8661H140.497V32.5198H140.017V32.3373H141.159V32.5198H140.679ZM142.847 33.889H142.665V32.6113L142.208 33.889H142.003L141.547 32.6113V33.889H141.364V32.3601H141.661L142.117 33.661L142.573 32.3601H142.847V33.889ZM128.813 33.1133V32.3373H124.134V39.6399H128.813V38.8641H124.91V36.4221H128.584V35.6464H124.91V33.0904H128.813V33.1133Z" fill="black"/>
<path d="M77.3523 25.0347L66.2386 5.1351L55.1249 25.0347H52.0215L66.2386 -0.0908203L80.4558 25.0575H77.3523V25.0347Z" fill="#6400FF"/>
</g>
</g>
<defs>
<clipPath id="clip0_1_730">
<rect width="142.857" height="40" fill="white" transform="translate(0.218262)"/>
</clipPath>
</defs>
</svg>
