<svg width="314" height="40" viewBox="0 0 314 40" fill="none" xmlns="http://www.w3.org/2000/svg">
<g clip-path="url(#clip0_1_743)">
<mask id="mask0_1_743" style="mask-type:luminance" maskUnits="userSpaceOnUse" x="0" y="0" width="314" height="40">
<path d="M314 0H0.0605469V40H314V0Z" fill="white"/>
</mask>
<g mask="url(#mask0_1_743)">
<path d="M122.584 3.72649V2.46126L122.039 2.1004H100.325L99.9634 2.46126V3.72649L100.325 4.08736H109.569L109.931 4.44822V30.7961L110.293 31.1569H111.923L112.285 30.7961V4.62214L112.647 4.26127H122.066L122.611 3.72214L122.584 3.72649ZM127.468 10.0308C121.669 10.0308 118.224 14.1787 118.224 20.1177V21.0265C118.224 26.8091 121.124 31.8525 127.817 31.8525C133.616 31.8525 135.797 28.0613 136.144 25.5482L135.787 25.1917H134.152L133.794 25.5482C132.888 28.0744 131.252 29.7004 127.995 29.7004C122.546 29.7004 120.932 24.6569 120.932 22.1352L121.298 21.7787H136.341L136.707 21.4134V20.1482C136.707 14.1917 133.45 10.0613 127.463 10.0613L127.468 10.0308ZM127.468 12.1961C130.001 12.1961 131.672 13.2352 132.7 14.6352C133.742 16.0352 134.148 17.7917 134.148 19.2439L133.791 19.6091H121.102L120.736 19.2439C120.736 17.8004 121.142 16.0396 122.183 14.6352C123.226 13.2352 124.904 12.1961 127.46 12.1961H127.468ZM140.854 20.8482C140.854 15.0656 143.749 12.0221 147.918 12.0221C152.081 12.0221 153.717 14.5482 154.24 17.0656L154.601 17.4265H156.411L156.774 17.0656C156.411 12.9134 152.971 10.0221 147.921 10.0221C142.472 10.0221 138.33 13.4525 138.33 20.8482C138.33 28.4135 142.494 31.6744 147.921 31.6744C152.98 31.6744 156.25 28.7873 156.774 24.6308L156.411 24.27H154.781L154.418 24.6308C154.057 27.1569 152.247 29.6744 148.096 29.6744C143.932 29.6744 140.858 26.7873 140.858 20.8482H140.854ZM177.044 30.9787V18.3265C177.044 12.8917 174.149 10.0221 169.457 10.0221C166.563 10.0221 164.008 11.2874 162.742 13.4525H162.381V2.62649L161.835 2.08736H160.205L159.843 2.44822V30.97L160.205 31.3308H161.835L162.198 30.97V19.5787C162.198 14.883 164.369 12.0134 168.912 12.0134C172.353 12.0134 174.363 14.1787 174.363 18.3177V30.97L174.725 31.3308H176.355L177.079 30.97L177.044 30.9787ZM198.41 30.9787V18.3265C198.41 12.8917 195.514 10.0221 190.822 10.0221C187.928 10.0221 185.372 11.2874 184.108 13.4525H183.746L183.384 10.9265L183.022 10.5656H181.753L181.392 10.9265V30.97L181.753 31.3308H183.384L183.746 30.97V19.5787C183.746 14.883 185.918 12.0134 190.461 12.0134C193.901 12.0134 195.911 14.1787 195.911 18.3177V30.97L196.273 31.3308H198.083L198.444 30.97L198.41 30.9787ZM210.531 10.196C205.08 10.196 200.938 13.9917 200.938 21.0221C200.938 28.0656 205.107 31.8482 210.531 31.8482C215.955 31.8482 220.124 28.0613 220.124 21.0221C220.124 13.9787 215.955 10.196 210.531 10.196ZM210.531 12.183C212.615 12.183 214.377 13.0439 215.633 14.5787C216.875 16.1134 217.599 18.3265 217.599 21.0134C217.599 23.7221 216.875 25.9265 215.633 27.4482C214.389 28.983 212.624 29.8352 210.531 29.8352C208.446 29.8352 206.685 28.983 205.429 27.4482C204.187 25.9135 203.463 23.7004 203.463 21.0134C203.463 18.2134 204.187 16.0134 205.429 14.4917C206.672 12.9787 208.438 12.1656 210.531 12.1656V12.183ZM225.748 30.9656V2.44388L225.204 2.08301H223.572L223.211 2.44388V30.9656L223.572 31.3265H225.204L225.748 30.9656ZM238.262 10.183C232.812 10.183 228.669 13.9787 228.669 21.0091C228.669 28.0525 232.838 31.8352 238.262 31.8352C243.686 31.8352 247.855 28.0482 247.855 21.0091C247.855 13.9656 243.695 10.183 238.262 10.183ZM238.262 12.17C240.347 12.17 242.103 13.0308 243.364 14.5656C244.606 16.1004 245.34 18.3134 245.34 21.0004C245.34 23.7091 244.606 25.9134 243.364 27.4352C242.121 28.97 240.36 29.8221 238.262 29.8221C236.178 29.8221 234.417 28.97 233.161 27.4352C231.909 25.9004 231.177 23.6873 231.177 21.0004C231.177 18.2004 231.909 16.0004 233.152 14.4787C234.395 12.9656 236.16 12.1525 238.254 12.1525L238.262 12.17ZM258.886 10.0048C253.088 10.0048 249.992 14.7004 249.992 20.8308C249.992 27.1352 252.891 31.6569 258.886 31.6569C262.689 31.6569 264.685 30.0308 265.601 28.2265V28.4048C265.601 33.8396 264.337 37.97 259.279 37.97C255.477 37.97 254.221 36.3482 253.828 34.183L253.462 33.8177H251.835L251.469 34.183C251.832 37.6135 254.374 39.9656 259.449 39.9656C264.9 39.9656 268.343 36.5352 268.343 28.2265V10.8787L267.977 10.5221H266.709L266.352 10.8787L265.984 13.4091H265.627C264.72 11.783 262.727 9.97866 258.913 9.97866L258.886 10.0048ZM258.886 11.9917C260.971 11.9917 262.645 12.7091 263.814 14.1744C264.969 15.6396 265.601 17.8525 265.601 20.8265C265.601 23.8048 264.969 26.0004 263.814 27.4787C262.658 28.9439 260.983 29.67 258.886 29.67C256.803 29.67 255.128 28.9439 253.959 27.4787C252.804 26.0135 252.181 23.8004 252.181 20.8265C252.181 17.9396 252.809 15.7396 253.959 14.2177C255.115 12.7265 256.789 11.9656 258.886 11.9656V11.9917ZM274.801 6.77432V4.24822L274.439 3.88736H272.809L272.263 4.24822V6.77432L272.626 7.13518H274.256L274.801 6.77432ZM274.801 30.9482V10.9047L274.439 10.5439H272.809L272.263 10.9047V30.9482L272.626 31.3091H274.256L274.801 30.9482ZM286.923 9.9917C281.124 9.9917 277.679 14.1396 277.679 20.0787V20.9873C277.679 26.77 280.578 31.8134 287.272 31.8134C293.071 31.8134 295.251 28.0221 295.6 25.5091L295.234 25.1525H293.607L293.241 25.5091C292.334 28.0352 290.708 29.6613 287.441 29.6613C281.992 29.6613 280.378 24.6178 280.378 22.0961L280.744 21.7396H295.787L296.154 21.3744V20.1091C296.154 14.3265 292.709 10.0221 286.909 10.0221L286.923 9.9917ZM286.923 12.1569C289.456 12.1569 291.135 13.1961 292.199 14.5961C293.241 15.9961 293.646 17.7525 293.646 19.2048L293.28 19.57H280.592L280.234 19.2048C280.234 17.7613 280.641 16.0004 281.681 14.5961C282.724 13.1961 284.394 12.1569 286.914 12.1569H286.923ZM313.913 25.896C313.913 22.1048 311.742 20.4613 307.591 19.5917C303.427 18.6873 300.875 18.3265 300.875 15.4396C300.875 13.2744 302.507 12.0091 305.584 12.0091C309.387 12.0091 310.643 13.6352 310.643 15.8004L311.005 16.1613H312.635L312.998 15.8004C312.998 11.6482 309.558 10.0178 305.411 10.0178C300.702 10.0178 298.347 12.5439 298.347 15.4525C298.347 18.883 300.88 20.496 305.062 21.2352C309.226 22.1396 311.384 22.5004 311.384 25.9308C311.384 28.0961 310.115 29.7221 305.935 29.7221C302.132 29.7221 300.484 27.5569 300.484 25.0265L300.121 24.6656H298.491L298.129 25.0265C298.129 28.8177 301.023 31.7221 306.108 31.7221C311.34 31.9048 313.913 29.3744 313.913 25.9396V25.896Z" fill="#808080"/>
<path d="M99.911 25.1739V31.1304H81.0747V1.65217H87.9202V25.1304H99.911V25.1739ZM42.7915 0L26.0916 12.8261C24.3781 6.43479 18.8101 1.73913 11.9644 1.73913H-0.0263672V31.2173H11.9644C18.8101 31.2173 24.8271 26.5217 26.0916 20.1304L42.7915 32.9565L59.4913 20.1304V31.2173H78.3276V25.2173H65.901V1.73913H59.0553V12.8261L43.2275 25.6521L39.8047 22.6608L47.5224 16.6608L55.6761 10.2696L50.967 6.43044L35.1393 18.8217L31.7164 15.8304L47.5442 3.87392L42.8351 0.0347827H42.8268L42.7915 0ZM6.38323 7.69565H11.5283C12.5966 7.69565 13.6474 7.93479 14.611 8.37392C15.5747 8.81304 16.4599 9.45652 17.2098 10.2609C17.9597 11.0609 18.5702 12.0174 18.9974 13.0956C19.4257 14.1783 19.6602 15.3827 19.6602 16.6608C19.6602 17.8348 19.4505 18.9783 19.0542 20.0392C18.6591 21.1 18.0818 22.0739 17.3581 22.9C16.6342 23.7261 15.7709 24.4044 14.7854 24.8783C13.8 25.3521 12.7012 25.6173 11.524 25.6173H6.37886V7.70435L6.38323 7.69565Z" fill="#007DB8"/>
</g>
</g>
<defs>
<clipPath id="clip0_1_743">
<rect width="313.939" height="40" fill="white" transform="translate(0.0605469)"/>
</clipPath>
</defs>
</svg>
