<svg width="137" height="40" viewBox="0 0 137 40" fill="none" xmlns="http://www.w3.org/2000/svg">
<g clip-path="url(#clip0_1_737)">
<path d="M136.784 18.1948V15.7934H133.801V12.06L133.701 12.091L130.9 12.948L130.844 12.9648V15.7935H126.424V14.2176C126.424 13.4839 126.588 12.9224 126.911 12.5479C127.232 12.1779 127.692 11.9898 128.277 11.9898C128.699 11.9898 129.134 12.089 129.574 12.2846L129.684 12.3338V9.80479L129.632 9.7857C129.222 9.63862 128.665 9.56445 127.975 9.56445C127.105 9.56445 126.315 9.75379 125.626 10.1289C124.936 10.5045 124.394 11.0409 124.014 11.7227C123.635 12.4038 123.443 13.1904 123.443 14.0609V15.7934H121.366V18.1948H123.443V28.3115H126.424V18.1948H130.844V24.6237C130.844 27.2715 132.094 28.6133 134.557 28.6133C134.961 28.6133 135.388 28.5659 135.822 28.473C136.265 28.3776 136.567 28.2824 136.744 28.1807L136.784 28.1575V25.7338L136.662 25.814C136.5 25.9218 136.299 26.0099 136.063 26.0755C135.825 26.1421 135.628 26.1755 135.474 26.1755C134.897 26.1755 134.47 26.02 134.205 25.7132C133.937 25.4036 133.801 24.8622 133.801 24.1048V18.1948H136.784ZM114.709 26.176C113.628 26.176 112.774 25.8172 112.174 25.1105C111.569 24.4002 111.262 23.3876 111.262 22.101C111.262 20.7737 111.569 19.7348 112.174 19.012C112.775 18.294 113.62 17.9295 114.685 17.9295C115.719 17.9295 116.542 18.2775 117.131 18.9646C117.724 19.6551 118.024 20.6857 118.024 22.0285C118.024 23.3879 117.741 24.432 117.184 25.1305C116.63 25.8238 115.798 26.176 114.709 26.176ZM114.842 15.4918C112.778 15.4918 111.139 16.0966 109.969 17.2895C108.801 18.4826 108.209 20.1336 108.209 22.1971C108.209 24.157 108.787 25.7335 109.928 26.8821C111.068 28.031 112.62 28.613 114.54 28.613C116.541 28.613 118.148 27.9997 119.316 26.7903C120.484 25.5822 121.077 23.9468 121.077 21.9315C121.077 19.9409 120.521 18.3526 119.425 17.2117C118.329 16.0704 116.787 15.4918 114.842 15.4918ZM103.403 15.4918C101.999 15.4918 100.837 15.851 99.9502 16.5591C99.0569 17.2715 98.6044 18.2057 98.6044 19.3363C98.6044 19.924 98.7019 20.446 98.8944 20.8888C99.0877 21.333 99.3877 21.7241 99.7852 22.0524C100.18 22.378 100.789 22.719 101.597 23.066C102.276 23.3454 102.783 23.5817 103.104 23.768C103.419 23.9505 103.642 24.134 103.768 24.3127C103.89 24.4875 103.952 24.7269 103.952 25.0223C103.952 25.8633 103.322 26.2725 102.026 26.2725C101.545 26.2725 100.998 26.1721 100.397 25.9742C99.8002 25.7794 99.2377 25.494 98.7277 25.128L98.6044 25.0393V27.9092L98.6494 27.9304C99.071 28.125 99.6027 28.2893 100.23 28.4185C100.855 28.5478 101.424 28.6135 101.918 28.6135C103.441 28.6135 104.669 28.2527 105.564 27.5403C106.464 26.823 106.921 25.8667 106.921 24.697C106.921 23.8533 106.675 23.1297 106.191 22.5461C105.709 21.9673 104.874 21.4359 103.709 20.9661C102.781 20.5936 102.187 20.2845 101.942 20.047C101.705 19.8178 101.585 19.4935 101.585 19.0828C101.585 18.7188 101.734 18.4271 102.038 18.191C102.344 17.9535 102.771 17.8329 103.306 17.8329C103.803 17.8329 104.311 17.9113 104.816 18.065C105.321 18.2188 105.765 18.4247 106.135 18.6766L106.257 18.7599V16.0375L106.21 16.0174C105.869 15.8709 105.418 15.7455 104.871 15.6438C104.326 15.5428 103.833 15.4918 103.403 15.4918ZM90.8335 26.176C89.7519 26.176 88.8985 25.8172 88.2977 25.1105C87.6927 24.4002 87.386 23.3879 87.386 22.101C87.386 20.7737 87.6927 19.7348 88.2977 19.012C88.8994 18.294 89.7435 17.9295 90.8094 17.9295C91.8427 17.9295 92.6652 18.2775 93.2552 18.9646C93.8477 19.6551 94.1477 20.6857 94.1477 22.0285C94.1477 23.3879 93.8652 24.432 93.3077 25.1305C92.7544 25.8238 91.9219 26.176 90.8335 26.176ZM90.966 15.4918C88.9019 15.4918 87.2619 16.0966 86.0935 17.2895C84.9252 18.4826 84.3327 20.1336 84.3327 22.1971C84.3327 24.1579 84.911 25.7335 86.0519 26.8821C87.1919 28.031 88.7444 28.613 90.6644 28.613C92.6652 28.613 94.2719 27.9997 95.441 26.7903C96.6085 25.5822 97.201 23.9468 97.201 21.9315C97.201 19.9409 96.6452 18.3526 95.5494 17.2117C94.4527 16.0704 92.9102 15.4918 90.966 15.4918ZM79.8077 17.9612V15.7934H76.8632V28.3112H79.8077V21.9078C79.8077 20.819 80.0546 19.9245 80.5418 19.2489C81.0227 18.5813 81.6636 18.243 82.4461 18.243C82.7114 18.243 83.0091 18.2867 83.3315 18.3732C83.651 18.4592 83.8819 18.5526 84.0185 18.6509L84.1419 18.7405V15.772L84.0944 15.7515C83.8202 15.635 83.432 15.5762 82.9412 15.5762C82.2012 15.5762 81.539 15.814 80.9719 16.2821C80.474 16.6935 80.1142 17.2577 79.839 17.9612H79.8077ZM71.59 15.4918C70.2391 15.4918 69.0342 15.7815 68.0093 16.3525C66.9823 16.9249 66.188 17.742 65.6476 18.781C65.1096 19.8175 64.8365 21.0282 64.8365 22.3785C64.8365 23.5612 65.1013 24.6466 65.6248 25.6032C66.1485 26.5614 66.8898 27.311 67.8282 27.8309C68.7653 28.3501 69.8483 28.6134 71.0474 28.6134C72.4467 28.6134 73.6415 28.3336 74.5995 27.7819L74.6381 27.7597V25.062L74.5144 25.1524C74.0805 25.4685 73.5955 25.7208 73.0738 25.9025C72.5534 26.0841 72.0789 26.176 71.6628 26.176C70.5074 26.176 69.5799 25.8144 68.9066 25.1016C68.2319 24.388 67.8898 23.3858 67.8898 22.1247C67.8898 20.8557 68.2465 19.8278 68.9496 19.0694C69.6506 18.3131 70.5799 17.9295 71.7114 17.9295C72.6792 17.9295 73.6224 18.2572 74.5146 18.9045L74.6381 18.9942V16.1517L74.5982 16.1293C74.2625 15.9413 73.8045 15.7861 73.236 15.6684C72.6699 15.551 72.1161 15.4918 71.59 15.4918ZM62.8085 15.7935H59.864V28.3112H62.8085V15.7935ZM61.3664 10.4609C60.8817 10.4609 60.459 10.6259 60.1117 10.9528C59.763 11.2806 59.5861 11.6934 59.5861 12.1805C59.5861 12.66 59.7609 13.0653 60.1063 13.3845C60.4495 13.7026 60.8735 13.8639 61.3665 13.8639C61.8593 13.8639 62.2849 13.7026 62.6321 13.385C62.9817 13.0653 63.159 12.6601 63.159 12.1805C63.159 11.7105 62.9865 11.3019 62.6465 10.966C62.307 10.6307 61.876 10.4609 61.3664 10.4609ZM54.0195 14.8699V28.3112H57.0245V10.844H52.8654L47.5789 23.8181L42.4486 10.844H38.1201V28.311H40.9441V14.8686H41.041L46.4585 28.3112H48.5896L53.9225 14.8699H54.0195Z" fill="#706D6E"/>
<path d="M14.0869 18.8599H0.234863V5.00781H14.0869V18.8599Z" fill="#F1511B"/>
<path d="M29.3816 18.8599H15.5298V5.00781H29.3816V18.8599Z" fill="#80CC28"/>
<path d="M14.0865 34.1595H0.234863V20.3076H14.0865V34.1595Z" fill="#00ADEF"/>
<path d="M29.3816 34.1595H15.5298V20.3076H29.3816V34.1595Z" fill="#FBBC09"/>
</g>
<defs>
<clipPath id="clip0_1_737">
<rect width="136.667" height="40" fill="white" transform="translate(0.234863)"/>
</clipPath>
</defs>
</svg>
