<svg width="41" height="40" viewBox="0 0 41 40" fill="none" xmlns="http://www.w3.org/2000/svg">
<g clip-path="url(#clip0_1_723)">
<mask id="mask0_1_723" style="mask-type:luminance" maskUnits="userSpaceOnUse" x="0" y="0" width="41" height="40">
<path d="M40.0591 0H0.059082V40H40.0591V0Z" fill="white"/>
</mask>
<g mask="url(#mask0_1_723)">
<path d="M20.0589 39.987C19.8613 39.987 19.6611 39.9843 19.4661 39.979L23.5489 28.7534H29.1697C30.1577 28.7534 31.2418 27.9923 31.5783 27.0658L36.0082 14.8949C36.7345 12.9029 35.5943 11.2714 33.4715 11.2714H25.6744L19.1297 29.2526H19.127L15.418 39.445C6.61967 37.3514 0.0722656 29.4396 0.0722656 20.0003C0.0722656 10.8308 6.24583 3.10579 14.6624 0.750655L10.8359 11.2714H10.8333L4.47013 28.7534H8.70779L14.1176 13.8989H17.3032L11.8907 28.7534H16.1257L21.1671 14.8949C21.8934 12.9029 20.7505 11.2714 18.633 11.2714H15.0736L19.1617 0.0350337C19.459 0.0207925 19.7581 0.0136719 20.0589 0.0136719C31.0976 0.0136719 40.0455 8.96159 40.0455 20.0003C40.0455 31.039 31.0976 39.987 20.0589 39.987Z" fill="black"/>
<path d="M27.6961 26.1156H24.5132L28.9698 13.8887H32.1527L27.6961 26.1156Z" fill="black"/>
</g>
</g>
<defs>
<clipPath id="clip0_1_723">
<rect width="40" height="40" fill="white" transform="translate(0.059082)"/>
</clipPath>
</defs>
</svg>
