<svg width="314" height="34" viewBox="0 0 314 34" fill="none" xmlns="http://www.w3.org/2000/svg">
<g clip-path="url(#clip0_1_714)">
<mask id="mask0_1_714" style="mask-type:luminance" maskUnits="userSpaceOnUse" x="0" y="0" width="314" height="34">
<path d="M313.9 0.0498047H0V33.7613H313.9V0.0498047Z" fill="white"/>
</mask>
<g mask="url(#mask0_1_714)">
<path d="M31.0058 25.8473H31.2481V31.8427H31.0058C13.9886 31.8427 0.140625 17.9544 0.140625 0.856445H6.13602C6.13602 14.6438 17.2991 25.8473 31.0058 25.8473Z" fill="#EF3E42"/>
<path d="M12.0713 0.856445H17.9658C17.9658 8.10337 23.8198 14.0181 31.0466 14.0181H31.2888V19.8923H31.0466C20.5496 19.8923 12.0713 11.3736 12.0713 0.856445ZM31.2484 0.856445V8.10337H31.0062C27.0295 8.10337 23.7794 4.85337 23.7794 0.856445H31.2484Z" fill="#EF3E42"/>
<path fill-rule="evenodd" clip-rule="evenodd" d="M65.3227 18.6813H53.4732V32.6705H49.2744V1.13919H67.0993V4.55071H53.4732V15.4111H65.3227V18.6813ZM83.9545 29.259H100.306V32.6705H79.7357V1.13919H83.9545V29.259ZM115.547 29.259H130.303V32.6705H111.328V1.15938H129.152V4.5709H115.547V14.6642H127.376V17.7325H115.547V29.259ZM146.836 29.259H161.592V32.6705H142.617V1.15938H160.441V4.5709H146.836V14.6642H158.665V17.7325H146.836V29.259ZM196.918 4.36904H186.381V32.6705H182.344V4.36904H171.665V1.13919H196.918V4.36904ZM226.734 25.8475H230.469C230.469 27.5835 229.802 29.2186 228.49 30.7124C226.774 32.6705 224.13 33.6395 220.537 33.6395C216.56 33.6395 213.31 32.2466 210.807 29.4205C208.223 26.5742 206.931 22.436 206.931 16.9251C206.931 11.293 208.223 7.11437 210.807 4.42959C213.31 1.5833 216.52 0.19043 220.537 0.19043C223.995 0.19043 226.539 1.01135 228.167 2.65318C229.701 4.46997 230.408 6.30693 230.408 8.02279H226.674C226.674 6.48864 226.189 5.37836 225.24 4.61127C224.13 3.84419 222.656 3.46064 220.678 3.46064C217.852 3.46064 215.651 4.36904 214.016 6.206C212.058 8.7899 211.11 12.3629 211.11 16.9251C211.11 21.5881 212.058 25.141 214.016 27.6239C215.651 29.6022 217.812 30.5711 220.496 30.5711C222.454 30.5711 223.988 30.127 225.199 29.259C226.249 28.4112 226.734 27.2403 226.734 25.8475ZM254.753 33.6395C250.877 33.6395 247.667 32.2062 245.224 29.259C242.741 26.4329 241.49 22.3552 241.49 16.9251C241.49 11.293 242.782 7.11437 245.366 4.42959C247.869 1.5833 250.978 0.19043 254.753 0.19043C258.649 0.19043 261.859 1.5833 264.301 4.42959C266.784 7.55847 268.036 11.7371 268.036 16.9251C268.036 22.3552 266.784 26.4329 264.301 29.259C261.959 32.2062 258.79 33.6395 254.753 33.6395ZM254.753 30.4298C257.438 30.4298 259.497 29.4608 260.889 27.4826C262.867 24.9996 263.817 21.4872 263.817 16.9251C263.817 12.262 262.867 8.74953 260.889 6.34732C259.497 4.36904 257.438 3.42027 254.753 3.42027C252.169 3.42027 250.11 4.36904 248.637 6.34732C246.658 8.74953 245.709 12.262 245.709 16.9251C245.709 21.4872 246.658 24.9996 248.637 27.4826C250.11 29.4205 252.169 30.4298 254.753 30.4298ZM288.646 19.1859H284.568V32.6705H280.349V1.15938H290.079C293.006 1.15938 295.348 1.92647 297.225 3.42027C298.759 4.95444 299.466 6.93274 299.466 9.41563C299.466 11.5756 298.941 13.3722 297.851 14.8055C296.653 16.4338 294.924 17.6854 292.663 18.5602C293.632 19.085 294.298 19.5089 294.641 19.8521C294.964 20.0943 295.63 21.245 296.74 23.4049L301.767 32.6705H297.084L292.663 24.3738C291.707 22.3552 290.368 20.6259 288.646 19.1859ZM288.787 4.36904H284.568V15.9157H288.444C290.604 15.9157 292.279 15.3303 293.49 14.1393C294.581 13.0291 295.106 11.5756 295.106 9.75885C295.106 8.02279 294.641 6.69048 293.672 5.68116C292.481 4.85351 290.846 4.36904 288.787 4.36904ZM313.758 5.33799C313.758 5.92339 313.657 6.48864 313.415 6.97311C313.226 7.45759 312.944 7.88819 312.567 8.265C312.177 8.6553 311.739 8.94466 311.255 9.13306C310.784 9.32146 310.259 9.41563 309.68 9.41563C309.102 9.41563 308.577 9.32146 308.105 9.13306C307.621 8.94466 307.191 8.6553 306.814 8.265C306.43 7.88148 306.127 7.45759 305.905 6.97311C305.663 6.48864 305.562 5.92339 305.562 5.33799C305.562 4.75258 305.663 4.18736 305.905 3.70288C306.127 3.2184 306.43 2.79449 306.814 2.41095C307.137 2.0274 307.621 1.7246 308.105 1.54293C308.577 1.35452 309.102 1.26031 309.68 1.26031C310.259 1.26031 310.784 1.35452 311.255 1.54293C311.739 1.73133 312.177 2.02067 312.567 2.41095C312.89 2.78776 313.172 3.2184 313.415 3.70288C313.616 4.18736 313.717 4.75258 313.758 5.33799ZM312.991 5.33799C312.991 4.81314 312.95 4.36904 312.749 3.94512C312.567 3.5212 312.324 3.13766 312.022 2.83486C311.739 2.55225 311.417 2.31001 310.972 2.12834C310.548 1.92647 310.104 1.82554 309.64 1.82554C309.155 1.82554 308.731 1.92647 308.288 2.12834C307.904 2.26964 307.52 2.55225 307.238 2.83486C306.894 3.17803 306.713 3.5212 306.511 3.94512C306.37 4.36904 306.289 4.85351 306.289 5.33799C306.289 5.82246 306.329 6.30693 306.511 6.73084C306.713 7.1548 306.955 7.49795 307.238 7.84111C307.52 8.12374 307.863 8.36595 308.288 8.54763C308.731 8.74953 309.155 8.85042 309.64 8.85042C310.104 8.85042 310.588 8.74953 310.972 8.54763C311.356 8.40632 311.739 8.12374 312.022 7.84111C312.324 7.55847 312.567 7.1548 312.749 6.73084C312.89 6.30693 312.991 5.82246 312.991 5.33799Z" fill="#231F20"/>
<path fill-rule="evenodd" clip-rule="evenodd" d="M310.307 5.62101L311.7 7.72042H310.872L309.58 5.66138H308.813V7.72042H308.046V2.91602H309.923C310.488 2.91602 310.872 3.01695 311.175 3.25918C311.457 3.44759 311.599 3.78404 311.599 4.26851C311.599 4.69243 311.457 5.0356 311.215 5.23746C310.973 5.45952 310.65 5.56045 310.307 5.62101ZM310.064 5.0356C310.206 5.0356 310.347 4.99523 310.448 4.93466C310.589 4.8943 310.69 4.79336 310.73 4.69243C310.791 4.61168 310.831 4.47037 310.831 4.26851C310.831 4.12721 310.791 3.9859 310.73 3.88497C310.69 3.78404 310.589 3.6831 310.488 3.64273C310.408 3.60236 310.307 3.54179 310.165 3.54179C310.024 3.50143 309.923 3.50143 309.782 3.50143H308.772V5.0356H310.064Z" fill="#231F20"/>
</g>
</g>
<defs>
<clipPath id="clip0_1_714">
<rect width="313.9" height="33.9012" fill="white" transform="translate(0 0.0498047)"/>
</clipPath>
</defs>
</svg>
