<svg width="60" height="60" viewBox="0 0 60 60" fill="none" xmlns="http://www.w3.org/2000/svg">
<path d="M7.5 3.75H3.75V52.5C3.75 53.4946 4.14509 54.4484 4.84835 55.1516C5.55161 55.8549 6.50544 56.25 7.5 56.25H28.125V52.5H7.5V3.75ZM43.125 7.5V11.25H49.8488L35.625 25.4738L27.5756 17.4244C27.224 17.0729 26.7472 16.8754 26.25 16.8754C25.7528 16.8754 25.276 17.0729 24.9244 17.4244L11.25 31.0988L13.9012 33.75L26.25 21.4012L34.2994 29.4506C34.651 29.8021 35.1278 29.9996 35.625 29.9996C36.1222 29.9996 36.599 29.8021 36.9506 29.4506L52.5 13.9012V20.625H56.25V7.5H43.125ZM42.15 39.1181C40.8277 38.0682 39.1884 37.4978 37.5 37.5H31.875V43.125C31.875 47.2612 35.2388 50.625 39.375 50.625H41.25V56.25H45V50.625H46.875C52.0444 50.625 56.25 46.4194 56.25 41.25V33.75H50.625C48.8494 33.7524 47.1109 34.2579 45.6109 35.208C44.1109 36.1581 42.9109 37.5139 42.15 39.1181ZM41.25 46.875H39.375C37.3069 46.875 35.625 45.1931 35.625 43.125V41.25H37.5C39.5681 41.25 41.25 42.9319 41.25 45V46.875ZM52.5 41.25C52.5 44.3512 49.9762 46.875 46.875 46.875H45V43.125C45 40.0238 47.5238 37.5 50.625 37.5H52.5V41.25Z" fill="#F59E0B"/>
</svg>
