<svg width="60" height="60" viewBox="0 0 60 60" fill="none" xmlns="http://www.w3.org/2000/svg">
<path d="M16.25 50C12.4583 50 9.21917 48.6875 6.5325 46.0625C3.84583 43.4375 2.50167 40.2292 2.5 36.4375C2.5 33.1875 3.47917 30.2917 5.4375 27.75C7.39583 25.2083 9.95833 23.5833 13.125 22.875C14.1667 19.0417 16.25 15.9375 19.375 13.5625C22.5 11.1875 26.0417 10 30 10C34.875 10 39.0108 11.6983 42.4075 15.095C45.8042 18.4917 47.5017 22.6267 47.5 27.5C50.375 27.8333 52.7608 29.0733 54.6575 31.22C56.5542 33.3667 57.5017 35.8767 57.5 38.75C57.5 41.875 56.4067 44.5317 54.22 46.72C52.0333 48.9083 49.3767 50.0017 46.25 50H16.25ZM16.25 45H46.25C48 45 49.4792 44.3958 50.6875 43.1875C51.8958 41.9792 52.5 40.5 52.5 38.75C52.5 37 51.8958 35.5208 50.6875 34.3125C49.4792 33.1042 48 32.5 46.25 32.5H42.5V27.5C42.5 24.0417 41.2808 21.0933 38.8425 18.655C36.4042 16.2167 33.4567 14.9983 30 15C26.5433 15.0017 23.5958 16.2208 21.1575 18.6575C18.7192 21.0942 17.5 24.0417 17.5 27.5H16.25C13.8333 27.5 11.7708 28.3542 10.0625 30.0625C8.35417 31.7708 7.5 33.8333 7.5 36.25C7.5 38.6667 8.35417 40.7292 10.0625 42.4375C11.7708 44.1458 13.8333 45 16.25 45Z" fill="#007BFF"/>
</svg>
