<svg width="16" height="16" viewBox="0 0 16 16" fill="none" xmlns="http://www.w3.org/2000/svg">
<path d="M13.3333 2.66699H2.66665C1.93331 2.66699 1.33998 3.26699 1.33998 4.00033L1.33331 12.0003C1.33331 12.7337 1.93331 13.3337 2.66665 13.3337H13.3333C14.0666 13.3337 14.6666 12.7337 14.6666 12.0003V4.00033C14.6666 3.26699 14.0666 2.66699 13.3333 2.66699ZM13.0666 5.50033L8.35331 8.44699C8.13998 8.58033 7.85998 8.58033 7.64665 8.44699L2.93331 5.50033C2.86646 5.4628 2.80793 5.4121 2.76124 5.35129C2.71455 5.29049 2.68069 5.22084 2.6617 5.14657C2.64271 5.0723 2.63898 4.99495 2.65075 4.9192C2.66252 4.84344 2.68954 4.77087 2.73017 4.70586C2.7708 4.64085 2.8242 4.58476 2.88713 4.54099C2.95006 4.49722 3.02123 4.46667 3.09631 4.45119C3.17139 4.43572 3.24883 4.43564 3.32395 4.45096C3.39906 4.46628 3.47029 4.49668 3.53331 4.54033L7.99998 7.33366L12.4666 4.54033C12.5297 4.49668 12.6009 4.46628 12.676 4.45096C12.7511 4.43564 12.8286 4.43572 12.9036 4.45119C12.9787 4.46667 13.0499 4.49722 13.1128 4.54099C13.1758 4.58476 13.2292 4.64085 13.2698 4.70586C13.3104 4.77087 13.3374 4.84344 13.3492 4.9192C13.361 4.99495 13.3573 5.0723 13.3383 5.14657C13.3193 5.22084 13.2854 5.29049 13.2387 5.35129C13.192 5.4121 13.1335 5.4628 13.0666 5.50033Z" fill="black"/>
</svg>
