<svg width="25" height="24" viewBox="0 0 25 24" fill="none" xmlns="http://www.w3.org/2000/svg">
<g clip-path="url(#clip0_1_213)">
<path d="M24.9333 12C24.9333 5.37262 19.5607 0 12.9333 0C6.30597 0 0.93335 5.37262 0.93335 12C0.93335 17.9895 5.3216 22.954 11.0583 23.8542V15.4687H8.01147V12H11.0583V9.35625C11.0583 6.34875 12.8499 4.6875 15.591 4.6875C16.9039 4.6875 18.2771 4.92187 18.2771 4.92187V7.875H16.764C15.2733 7.875 14.8083 8.80003 14.8083 9.74906V12H18.1365L17.6044 15.4687H14.8083V23.8542C20.5451 22.954 24.9333 17.9896 24.9333 12Z" fill="#1877F2"/>
<path d="M17.6046 15.4688L18.1366 12H14.8085V9.74906C14.8085 8.79994 15.2734 7.875 16.7641 7.875H18.2772V4.92188C18.2772 4.92188 16.904 4.6875 15.591 4.6875C12.85 4.6875 11.0585 6.34875 11.0585 9.35625V12H8.0116V15.4688H11.0585V23.8542C11.6787 23.9514 12.3056 24.0001 12.9335 24C13.5613 24.0001 14.1882 23.9514 14.8085 23.8542V15.4688H17.6046Z" fill="white"/>
</g>
<defs>
<clipPath id="clip0_1_213">
<rect width="24" height="24" fill="white" transform="translate(0.93335)"/>
</clipPath>
</defs>
</svg>
