<svg width="25" height="24" viewBox="0 0 25 24" fill="none" xmlns="http://www.w3.org/2000/svg">
<g clip-path="url(#clip0_1_206)">
<path d="M19.3083 0L6.55835 0C3.45175 0 0.93335 2.5184 0.93335 5.625V18.375C0.93335 21.4816 3.45175 24 6.55835 24H19.3083C22.415 24 24.9333 21.4816 24.9333 18.375V5.625C24.9333 2.5184 22.415 0 19.3083 0Z" fill="url(#paint0_radial_1_206)"/>
<path d="M19.3083 0L6.55835 0C3.45175 0 0.93335 2.5184 0.93335 5.625V18.375C0.93335 21.4816 3.45175 24 6.55835 24H19.3083C22.415 24 24.9333 21.4816 24.9333 18.375V5.625C24.9333 2.5184 22.415 0 19.3083 0Z" fill="url(#paint1_radial_1_206)"/>
<path d="M12.9342 2.625C10.3881 2.625 10.0685 2.63616 9.0686 2.68163C8.07054 2.72738 7.38926 2.88534 6.79319 3.11719C6.17651 3.35662 5.65347 3.67697 5.13241 4.19822C4.61088 4.71937 4.29054 5.24241 4.05035 5.85881C3.81785 6.45506 3.65969 7.13662 3.61479 8.13422C3.57007 9.13425 3.55835 9.45394 3.55835 12.0001C3.55835 14.5463 3.5696 14.8648 3.61497 15.8647C3.66091 16.8628 3.81888 17.5441 4.05054 18.1402C4.29016 18.7568 4.61051 19.2799 5.13176 19.8009C5.65272 20.3225 6.17576 20.6436 6.79197 20.883C7.38851 21.1148 8.06988 21.2728 9.06776 21.3186C10.0678 21.364 10.3871 21.3752 12.9331 21.3752C15.4794 21.3752 15.798 21.364 16.7979 21.3186C17.796 21.2728 18.478 21.1148 19.0745 20.883C19.6909 20.6436 20.2132 20.3225 20.7341 19.8009C21.2556 19.2799 21.5759 18.7568 21.8162 18.1404C22.0466 17.5441 22.2048 16.8626 22.2517 15.8649C22.2966 14.865 22.3083 14.5463 22.3083 12.0001C22.3083 9.45394 22.2966 9.13444 22.2517 8.13441C22.2048 7.13634 22.0466 6.45516 21.8162 5.85909C21.5759 5.24241 21.2556 4.71937 20.7341 4.19822C20.2127 3.67678 19.6911 3.35644 19.074 3.11728C18.4763 2.88534 17.7947 2.72728 16.7966 2.68163C15.7966 2.63616 15.4782 2.625 12.9313 2.625H12.9342ZM12.0932 4.31447C12.3428 4.31409 12.6214 4.31447 12.9342 4.31447C15.4374 4.31447 15.734 4.32347 16.7225 4.36838C17.6366 4.41019 18.1327 4.56291 18.4632 4.69125C18.9007 4.86112 19.2126 5.06428 19.5406 5.3925C19.8687 5.72062 20.0718 6.03309 20.2421 6.47062C20.3704 6.80062 20.5233 7.29675 20.565 8.21081C20.6099 9.19913 20.6196 9.49594 20.6196 11.9979C20.6196 14.4999 20.6099 14.7968 20.565 15.7851C20.5232 16.6991 20.3704 17.1952 20.2421 17.5253C20.0722 17.9629 19.8687 18.2744 19.5406 18.6023C19.2124 18.9305 18.9009 19.1335 18.4632 19.3035C18.1331 19.4324 17.6366 19.5848 16.7225 19.6266C15.7342 19.6715 15.4374 19.6812 12.9342 19.6812C10.4309 19.6812 10.1342 19.6715 9.14594 19.6266C8.23188 19.5844 7.73576 19.4317 7.40501 19.3033C6.96757 19.1333 6.65501 18.9303 6.32688 18.6022C5.99876 18.274 5.79569 17.9623 5.62535 17.5246C5.49701 17.1945 5.3441 16.6984 5.30247 15.7843C5.25757 14.796 5.24857 14.4992 5.24857 11.9956C5.24857 9.492 5.25757 9.19678 5.30247 8.20847C5.34429 7.29441 5.49701 6.79828 5.62535 6.46781C5.79532 6.03028 5.99876 5.71781 6.32697 5.38969C6.65519 5.06156 6.96757 4.85841 7.4051 4.68816C7.73557 4.55925 8.23188 4.40691 9.14594 4.36491C10.0108 4.32581 10.3459 4.31409 12.0932 4.31212V4.31447ZM17.9386 5.87109C17.3175 5.87109 16.8136 6.37453 16.8136 6.99572C16.8136 7.61681 17.3175 8.12072 17.9386 8.12072C18.5597 8.12072 19.0636 7.61681 19.0636 6.99572C19.0636 6.37463 18.5597 5.87072 17.9386 5.87072V5.87109ZM12.9342 7.18556C10.2754 7.18556 8.11976 9.34125 8.11976 12.0001C8.11976 14.6589 10.2754 16.8136 12.9342 16.8136C15.593 16.8136 17.748 14.6589 17.748 12.0001C17.748 9.34134 15.5928 7.18556 12.934 7.18556H12.9342ZM12.9342 8.87503C14.66 8.87503 16.0593 10.2741 16.0593 12.0001C16.0593 13.7259 14.66 15.1252 12.9342 15.1252C11.2083 15.1252 9.80923 13.7259 9.80923 12.0001C9.80923 10.2741 11.2083 8.87503 12.9342 8.87503Z" fill="white"/>
</g>
<defs>
<radialGradient id="paint0_radial_1_206" cx="0" cy="0" r="1" gradientUnits="userSpaceOnUse" gradientTransform="translate(7.30835 25.8485) rotate(-90) scale(23.7858 22.1227)">
<stop stop-color="#FFDD55"/>
<stop offset="0.1" stop-color="#FFDD55"/>
<stop offset="0.5" stop-color="#FF543E"/>
<stop offset="1" stop-color="#C837AB"/>
</radialGradient>
<radialGradient id="paint1_radial_1_206" cx="0" cy="0" r="1" gradientUnits="userSpaceOnUse" gradientTransform="translate(-3.08674 1.72884) rotate(78.681) scale(10.6324 43.827)">
<stop stop-color="#3771C8"/>
<stop offset="0.128" stop-color="#3771C8"/>
<stop offset="1" stop-color="#6600FF" stop-opacity="0"/>
</radialGradient>
<clipPath id="clip0_1_206">
<rect width="24" height="24" fill="white" transform="translate(0.93335)"/>
</clipPath>
</defs>
</svg>
