<svg width="25" height="24" viewBox="0 0 25 24" fill="none" xmlns="http://www.w3.org/2000/svg">
<g clip-path="url(#clip0_1_201)">
<path d="M19.3083 0L6.55835 0C3.45175 0 0.93335 2.5184 0.93335 5.625V18.375C0.93335 21.4816 3.45175 24 6.55835 24H19.3083C22.415 24 24.9333 21.4816 24.9333 18.375V5.625C24.9333 2.5184 22.415 0 19.3083 0Z" fill="white"/>
<path d="M19.3083 0L6.55835 0C3.45175 0 0.93335 2.5184 0.93335 5.625V18.375C0.93335 21.4816 3.45175 24 6.55835 24H19.3083C22.415 24 24.9333 21.4816 24.9333 18.375V5.625C24.9333 2.5184 22.415 0 19.3083 0Z" fill="#0A66C2"/>
<path d="M18.2503 20.408H20.9943C21.0938 20.408 21.1891 20.3685 21.2595 20.2982C21.3298 20.2279 21.3693 20.1325 21.3693 20.0331L21.3707 14.2354C21.3707 11.2051 20.7178 8.87588 17.1765 8.87588C15.8304 8.82581 14.5609 9.51975 13.8759 10.6785C13.8725 10.6841 13.8674 10.6885 13.8614 10.691C13.8553 10.6934 13.8486 10.6938 13.8423 10.6921C13.8359 10.6904 13.8304 10.6867 13.8264 10.6815C13.8224 10.6763 13.8202 10.67 13.8201 10.6634V9.53063C13.8201 9.43117 13.7806 9.33579 13.7103 9.26546C13.6399 9.19513 13.5446 9.15563 13.4451 9.15563H10.841C10.7416 9.15563 10.6462 9.19513 10.5758 9.26546C10.5055 9.33579 10.466 9.43117 10.466 9.53063V20.0325C10.466 20.132 10.5055 20.2273 10.5758 20.2977C10.6462 20.368 10.7416 20.4075 10.841 20.4075H13.5849C13.6843 20.4075 13.7797 20.368 13.85 20.2977C13.9204 20.2273 13.9599 20.132 13.9599 20.0325V14.8413C13.9599 13.3734 14.2383 11.9519 16.0581 11.9519C17.852 11.9519 17.8753 13.6315 17.8753 14.9363V20.033C17.8753 20.1324 17.9148 20.2278 17.9851 20.2981C18.0554 20.3685 18.1508 20.408 18.2503 20.408ZM4.49573 5.59012C4.49573 6.70237 5.41138 7.61756 6.52373 7.61756C7.63579 7.61747 8.55088 6.70172 8.55088 5.58966C8.5507 4.47759 7.63551 3.5625 6.52335 3.5625C5.41091 3.5625 4.49573 4.47787 4.49573 5.59012ZM5.14813 20.408H7.89566C7.99512 20.408 8.0905 20.3685 8.16083 20.2981C8.23116 20.2278 8.27066 20.1324 8.27066 20.033V9.53063C8.27066 9.43117 8.23116 9.33579 8.16083 9.26546C8.0905 9.19513 7.99512 9.15563 7.89566 9.15563H5.14813C5.04868 9.15563 4.95329 9.19513 4.88297 9.26546C4.81264 9.33579 4.77313 9.43117 4.77313 9.53063V20.033C4.77313 20.1324 4.81264 20.2278 4.88297 20.2981C4.95329 20.3685 5.04868 20.408 5.14813 20.408Z" fill="white"/>
</g>
<defs>
<clipPath id="clip0_1_201">
<rect width="24" height="24" fill="white" transform="translate(0.93335)"/>
</clipPath>
</defs>
</svg>
