<svg width="60" height="60" viewBox="0 0 60 60" fill="none" xmlns="http://www.w3.org/2000/svg">
<path d="M24.2625 39.0562C20.1278 39.0562 16.6289 37.6239 13.7658 34.7592C10.9026 31.8945 9.47027 28.3956 9.46875 24.2625C9.46723 20.1293 10.8996 16.6304 13.7658 13.7658C16.632 10.9011 20.1309 9.46875 24.2625 9.46875C28.3941 9.46875 31.8938 10.9011 34.7615 13.7658C37.6292 16.6304 39.0608 20.1293 39.0562 24.2625C39.0562 25.9315 38.7907 27.5057 38.2596 28.9851C37.7286 30.4645 37.0079 31.7732 36.0975 32.9111L48.8429 45.6565C49.2601 46.0738 49.4688 46.6048 49.4688 47.2497C49.4688 47.8945 49.2601 48.4256 48.8429 48.8429C48.4256 49.2601 47.8945 49.4688 47.2497 49.4688C46.6048 49.4688 46.0738 49.2601 45.6565 48.8429L32.9111 36.0975C31.7732 37.0079 30.4645 37.7286 28.9851 38.2596C27.5057 38.7907 25.9315 39.0562 24.2625 39.0562ZM24.2625 34.5043C27.1074 34.5043 29.526 33.509 31.5183 31.5182C33.5105 29.5275 34.5058 27.109 34.5043 24.2625C34.5028 21.416 33.5074 18.9982 31.5183 17.009C29.5291 15.0198 27.1105 14.0237 24.2625 14.0207C21.4145 14.0176 18.9967 15.0137 17.009 17.009C15.0213 19.0043 14.0252 21.4221 14.0207 24.2625C14.0161 27.1029 15.0122 29.5215 17.009 31.5182C19.0058 33.515 21.4236 34.5104 24.2625 34.5043Z" fill="black"/>
</svg>
