<svg width="60" height="60" viewBox="0 0 60 60" fill="none" xmlns="http://www.w3.org/2000/svg">
<path d="M30 9.76758C41.3934 9.76758 50.6289 19.0031 50.6289 30.3965C50.6289 41.7898 41.3934 51.0254 30 51.0254C18.6067 51.0254 9.37109 41.7898 9.37109 30.3965C9.37109 19.0031 18.6067 9.76758 30 9.76758ZM30 13.8934C25.6231 13.8934 21.4255 15.6321 18.3305 18.727C15.2356 21.822 13.4969 26.0196 13.4969 30.3965C13.4969 34.7734 15.2356 38.971 18.3305 42.066C21.4255 45.1609 25.6231 46.8996 30 46.8996C34.3769 46.8996 38.5746 45.1609 41.6695 42.066C44.7644 38.971 46.5032 34.7734 46.5032 30.3965C46.5032 26.0196 44.7644 21.822 41.6695 18.727C38.5746 15.6321 34.3769 13.8934 30 13.8934ZM30 18.0191C30.5053 18.0192 30.993 18.2047 31.3705 18.5405C31.7481 18.8762 31.9893 19.3389 32.0485 19.8407L32.0629 20.082V29.5425L37.6472 35.1267C38.0171 35.4979 38.2319 35.9961 38.2479 36.52C38.2639 37.0438 38.0799 37.5541 37.7333 37.9473C37.3866 38.3404 36.9034 38.5868 36.3816 38.6365C35.8599 38.6862 35.3388 38.5355 34.9241 38.2149L34.7302 38.0436L28.5415 31.855C28.2209 31.5341 28.015 31.1165 27.9557 30.6667L27.9371 30.3965V20.082C27.9371 19.5349 28.1545 19.0102 28.5413 18.6234C28.9282 18.2365 29.4529 18.0191 30 18.0191Z" fill="black"/>
</svg>
