<svg width="41" height="41" viewBox="0 0 41 41" fill="none" xmlns="http://www.w3.org/2000/svg">
<path fill-rule="evenodd" clip-rule="evenodd" d="M20.6841 40.638C31.7298 40.638 40.6841 31.6837 40.6841 20.638C40.6841 9.59237 31.7298 0.638062 20.6841 0.638062C9.63837 0.638062 0.684082 9.59237 0.684082 20.638C0.684082 31.6837 9.63837 40.638 20.6841 40.638ZM26.9234 9.9549C27.2271 8.87611 26.1802 8.23819 25.2241 8.91936L11.8772 18.4276C10.8403 19.1663 11.0034 20.638 12.1222 20.638H15.6368V20.6108H22.4866L16.9053 22.5801L14.4448 31.3212C14.1411 32.4 15.1879 33.0379 16.1441 32.3567L29.491 22.8485C30.5279 22.1098 30.3647 20.638 29.246 20.638H23.9162L26.9234 9.9549Z" fill="#4BBB44"/>
</svg>
